<?xml version="1.0" encoding="UTF-8" standalone="no"?>
<!-- Created with Inkscape (http://www.inkscape.org/) -->

<svg
   version="1.1"
   id="svg2"
   width="272.32547"
   height="272.32748"
   viewBox="0 0 272.32547 272.32749"
   xmlns="http://www.w3.org/2000/svg"
   xmlns:svg="http://www.w3.org/2000/svg">
  <defs
     id="defs6" />
  <g
     id="g8"
     transform="matrix(1.3333333,0,0,-1.3333333,-359.68747,323.95895)">
    <g
       id="g14">
      <g
         id="g244"
         transform="translate(318.3096,92.8252)">
        <path
           d="m 0,0 -40.267,40.268 c -0.493,0.493 -0.493,1.293 0,1.786 0.494,0.493 1.293,0.493 1.786,0 L 0,3.572 98.55,102.123 56.502,144.171 c -0.493,0.493 -0.493,1.293 0,1.786 0.494,0.493 1.293,0.493 1.786,0 l 43.834,-43.834 z"
           style="fill:#000000;fill-opacity:1;fill-rule:nonzero;stroke:none"
           id="path242"
           transform="translate(53.578097,-54.101597)" />
        <path
           d="M 0,0 C -0.323,0 -0.646,0.123 -0.893,0.37 L -48.544,48.021 53.578,150.144 91.44,112.28 c 0.494,-0.493 0.494,-1.293 0,-1.786 -0.493,-0.493 -1.293,-0.493 -1.786,0 L 53.578,146.57 -44.972,48.021 0.893,2.156 C 1.387,1.663 1.387,0.863 0.893,0.37 0.646,0.123 0.323,0 0,0"
           style="fill:#000000;fill-opacity:1;fill-rule:nonzero;stroke:none"
           id="path246" />
      </g>
      <path
         d="m 413.0635,192.5527 c -0.007,-0.608 0.028,-1.217 0.404,-1.84 0.036,0.737 0.074,1.476 0.11,2.214 l -0.287,0.035 c -0.08,-0.136 -0.226,-0.271 -0.227,-0.409 m -71.806,-77.503 c -0.699,-0.816 -1.398,-1.634 -2.097,-2.451 l 0.407,-0.138 c -1.295,-4.3 -2.59,-8.598 -3.886,-12.898 3.991,4.317 4.518,9.969 5.576,15.487 m -12.288,-22.072 c 2.684,2.13 8.393,13.313 9.351,18.317 -4.476,-2.409 -9.779,-12.796 -9.351,-18.317 m 81.808,84.981 c -2.401,0.196 -4.814,0.256 -7.221,0.376 -0.021,-0.167 -0.044,-0.334 -0.065,-0.501 0.269,-0.096 0.535,-0.211 0.81,-0.288 2.402,-0.674 4.842,-1.23 7.199,-2.034 4.121,-1.406 7.589,0.052 11.025,2.404 -3.257,1.087 -6.518,2.163 -9.769,3.267 -1.925,0.653 -3.797,0.312 -5.656,-0.258 -0.292,-0.089 -0.528,-0.363 -1.219,-0.86 4.299,-0.623 8.147,-1.181 12.351,-1.79 -2.655,-1.07 -5.054,-0.511 -7.455,-0.316 m 17.89,22.807 c 0.042,-0.817 0.09,-1.738 0.144,-2.77 0.553,-0.18 1.153,-0.354 1.736,-0.572 0.541,-0.202 1.063,-0.453 1.584,-0.679 0.667,-1.615 0.784,-3.542 2.837,-4.281 1.672,0.914 1.323,2.532 1.264,3.987 -0.229,5.684 -4.05,8.254 -8.886,10.079 -1.658,-2.809 -1.457,-3.697 1.321,-5.764 m 1.886,-4.782 c -0.956,-0.049 -1.918,0.156 -2.623,-0.179 -3.227,-1.53 -6.383,-3.212 -9.986,-5.055 0.682,-0.649 1.085,-1.341 1.647,-1.515 4.429,-1.379 8.921,-2.212 13.54,-0.942 1.115,0.307 2.173,0.724 2.704,2.288 -3.078,0.481 -4.679,2.379 -5.282,5.403 m -3.248,3.756 c -3.386,1.805 -2.997,4.429 -2.241,7.052 -0.817,0.353 -1.522,0.657 -2.326,1.003 -3.172,-1.139 -7.279,-6.327 -8.132,-10.439 0.856,-1.503 1.734,-3.045 2.725,-4.783 3.794,1.745 7.281,3.674 9.974,7.167 m -2.989,-23.125 c -2.232,-0.987 -4.408,-2.195 -6.739,-2.831 -1.67,-0.456 -3.597,-0.386 -5.33,-0.088 -1.988,0.341 -3.862,1.293 -5.83,1.804 -4.527,1.178 -8.994,1.515 -13.095,-1.427 -1.646,-1.181 -3.362,-2.265 -4.99,-3.466 -2.018,-1.489 -4.383,-2.737 -5.875,-4.652 -2.644,-3.39 -5.001,-7.069 -7.008,-10.875 -3.24,-6.145 -6.081,-12.502 -9.127,-18.751 -1.945,-3.989 -4.076,-7.89 -5.911,-11.928 -3.141,-6.914 -6.02,-13.962 -11.031,-19.824 -2.157,-2.524 -4.215,-5.172 -6.639,-7.418 -2.903,-2.689 -6.153,-5.005 -9.246,-7.49 -1.216,-0.976 -2.417,-1.972 -3.587,-2.929 0.391,-0.735 0.673,-1.265 1.093,-2.054 -0.762,-0.087 -1.416,-0.37 -1.7,-0.157 -1.301,0.971 -2.362,0.278 -3.369,-0.393 -4.48,-2.983 -9.382,-4.92 -14.614,-6.092 -1.27,2.773 3.18,2.78 6.213,4.119 3.399,1.499 6.139,3.942 7.866,7.163 1.273,2.376 2.051,5.081 2.676,7.728 1.377,5.822 3.884,10.891 8.226,15.144 2.556,2.502 4.582,5.544 6.869,8.327 0.41,0.499 0.929,0.908 1.54,1.495 0.104,-0.494 0.199,-0.672 0.162,-0.814 -1.523,-5.749 -3.052,-11.496 -4.594,-17.239 -0.742,-2.763 -2.293,-5.077 -4.125,-7.215 -1.595,-1.861 -3.24,-3.68 -4.862,-5.517 0.098,-0.113 0.196,-0.226 0.295,-0.338 3.576,2.787 7.187,5.531 10.71,8.385 1.216,0.983 2.397,2.112 3.273,3.393 3.62,5.295 7.607,10.349 10.318,16.24 2.853,6.2 5.968,12.281 8.849,18.469 3.471,7.455 6.785,14.984 10.244,22.445 0.606,1.306 1.567,2.454 2.41,3.643 1.392,1.964 2.691,4.015 4.272,5.814 1.453,1.654 3.25,3 4.85,4.529 1.395,1.33 2.694,2.76 4.095,4.083 4.9,4.623 10.406,8.41 16.317,11.609 3.21,1.738 5.051,4.516 5.771,7.929 1.055,5.009 3.977,8.785 7.947,11.537 3.65,2.529 4.535,2.414 6.381,-0.294 1.265,-0.475 2.48,-0.889 3.661,-1.383 2.936,-1.229 4.876,-3.521 6.158,-6.306 1.694,-3.676 1.442,-7.58 0.758,-11.443 -0.116,-0.656 -0.682,-1.349 -1.228,-1.793 -2.094,-1.7 -4.724,-1.552 -7.184,-1.754 -4.366,-0.359 -8.51,0.954 -12.658,2.099 -1.22,0.336 -2.552,0.427 -3.654,0.984 -1.364,0.69 -2.523,0.723 -3.786,-0.066 -3.708,-2.315 -7.504,-4.496 -11.112,-6.957 -2.318,-1.581 -4.364,-3.563 -6.533,-5.364 0.094,-0.155 0.187,-0.308 0.281,-0.461 0.737,0.263 1.503,0.468 2.209,0.799 3.107,1.456 6.12,3.147 9.317,4.36 2.41,0.915 5.028,1.578 7.585,1.705 1.889,0.094 3.881,-0.713 5.736,-1.375 3.353,-1.196 6.639,-2.584 10.328,-1.99 0.102,0.016 0.22,-0.053 0.424,-0.108 0.202,-0.326 0.441,-0.71 0.774,-1.245 -1.391,-0.652 -2.576,-1.233 -3.781,-1.766"
         style="fill:#000000;fill-opacity:1;fill-rule:nonzero;stroke:none"
         id="path224" />
    </g>
  </g>
</svg>
